<?xml version="1.0" encoding="UTF-8" standalone="no"?>
<svg
   width="256"
   height="256"
   viewBox="0 0 256 256"
   version="1.1"
   preserveAspectRatio="xMidYMid"
   id="svg4"
   sodipodi:docname="google-play-icon-logo.svg"
   inkscape:version="1.4 (unknown)"
   xmlns:inkscape="http://www.inkscape.org/namespaces/inkscape"
   xmlns:sodipodi="http://sodipodi.sourceforge.net/DTD/sodipodi-0.dtd"
   xmlns="http://www.w3.org/2000/svg"
   xmlns:svg="http://www.w3.org/2000/svg"
   xmlns:rdf="http://www.w3.org/1999/02/22-rdf-syntax-ns#"
   xmlns:cc="http://creativecommons.org/ns#"
   xmlns:dc="http://purl.org/dc/elements/1.1/">
  <defs
     id="defs4" />
  <sodipodi:namedview
     id="namedview4"
     pagecolor="#ffffff"
     bordercolor="#000000"
     borderopacity="0.25"
     inkscape:showpageshadow="2"
     inkscape:pageopacity="0.0"
     inkscape:pagecheckerboard="0"
     inkscape:deskcolor="#d1d1d1"
     inkscape:zoom="1.4554406"
     inkscape:cx="84.510491"
     inkscape:cy="132.26235"
     inkscape:window-width="1920"
     inkscape:window-height="1008"
     inkscape:window-x="0"
     inkscape:window-y="0"
     inkscape:window-maximized="1"
     inkscape:current-layer="svg4"
     showguides="true">
    <sodipodi:guide
       position="127.95969,226.65119"
       orientation="1,0"
       id="guide1"
       inkscape:locked="false" />
    <sodipodi:guide
       position="270.47846,127.73661"
       orientation="0,-1"
       id="guide2"
       inkscape:locked="false" />
  </sodipodi:namedview>
  <title
     id="title1">Google Play</title>
  <g
     id="g4"
     transform="matrix(0.55070551,0,0,0.49647043,58.259829,57.919369)">
    <path
       d="M 119.55314,134.91636 1.0599006,259.06055 c 2.6962939,9.55645 9.6583834,17.33005 18.8609654,21.05943 9.202582,3.72937 19.612258,2.99574 28.200806,-1.9875 L 181.44864,202.19792 Z"
       fill="#ea4335"
       id="path1" />
    <path
       d="m 239.37082,113.81362 -57.65729,-33.02271 -64.89756,56.95092 65.16245,64.2795 57.21581,-32.66953 C 249.52572,163.94245 256,153.24465 256,141.58271 c 0,-11.66194 -6.47428,-22.35974 -16.80577,-27.76909 z"
       fill="#fbbc04"
       id="path2" />
    <path
       d="M 1.0599006,23.486801 C 0.3436334,26.134699 -0.01275388,28.867001 0,31.610034 V 250.93731 c 0.00751268,2.74173 0.36355668,5.4714 1.0599006,8.12324 L 123.61476,138.09502 Z"
       fill="#4285f4"
       id="path3" />
    <path
       d="M 120.4361,141.27367 181.71353,80.79091 48.563152,4.5031601 C 43.553993,1.5694404 37.856809,0.01566297 32.051799,0 17.644426,-0.02848733 4.9783687,9.5342055 1.0599006,23.398505 Z"
       fill="#34a853"
       id="path4" />
  </g>
  <circle
     style="opacity:1;fill:none;stroke:#940000;stroke-width:15;stroke-linejoin:round;stroke-dasharray:none;stroke-opacity:1"
     id="path5"
     cx="128.25922"
     cy="127.77338"
     r="120" />
  <path
     style="opacity:1;fill:none;stroke:#940000;stroke-width:15;stroke-linejoin:round;stroke-dasharray:none;stroke-opacity:1"
     d="M 43.725322,217.65493 217.1691,42.996567"
     id="path6"
     sodipodi:nodetypes="cc" />
  <metadata
     id="metadata6">
    <rdf:RDF>
      <cc:Work
         rdf:about="">
        <dc:title>Google Play</dc:title>
      </cc:Work>
    </rdf:RDF>
  </metadata>
</svg>
