<svg xmlns="http://www.w3.org/2000/svg" width="128" height="128" viewBox="0 0 128 128">
  <title>LAMP</title>
  <g>
    <g>
      <path d="M107,64.005H99.733a1.75,1.75,0,0,1,0-3.5H107a1.75,1.75,0,0,1,0,3.5Z" fill="#ffc26f"/>
      <path d="M28.268,64.058H21a1.75,1.75,0,1,1,0-3.5h7.268a1.75,1.75,0,1,1,0,3.5Z" fill="#ffc26f"/>
      <path d="M89.249,38.746a1.75,1.75,0,0,1-1.237-2.987L93.15,30.62A1.75,1.75,0,0,1,95.625,33.1l-5.139,5.138A1.741,1.741,0,0,1,89.249,38.746Z" fill="#ffc26f"/>
      <path d="M63.975,28.3a1.749,1.749,0,0,1-1.75-1.75V19.281a1.75,1.75,0,1,1,3.5,0v7.268A1.75,1.75,0,0,1,63.975,28.3Z" fill="#ffc26f"/>
      <path d="M38.716,38.783a1.744,1.744,0,0,1-1.237-.512l-5.14-5.14a1.75,1.75,0,0,1,2.474-2.475l5.14,5.14a1.75,1.75,0,0,1-1.237,2.987Z" fill="#ffc26f"/>
    </g>
    <path d="M64.461,108.719h-.92a4.6,4.6,0,0,1-4.6-4.6H69.063A4.6,4.6,0,0,1,64.461,108.719Z" fill="#4453e2"/>
    <path d="M87.847,61.833a23.79,23.79,0,0,1-8.161,17.949,17,17,0,0,0-5.04,7.886,2.915,2.915,0,0,0-.833-.622,2.835,2.835,0,0,0-1.3-.311H55.489a2.844,2.844,0,0,0-1.326.32,2.933,2.933,0,0,0-.723.521.805.805,0,0,0-.11.129A18.131,18.131,0,0,0,48.1,79.59,23.841,23.841,0,1,1,87.847,61.833Z" fill="#ffc26f"/>
    <path d="M75.414,89.635a2.883,2.883,0,0,1-.851,2.04,2.922,2.922,0,0,1-2.049.851H55.489a2.89,2.89,0,0,1-2.89-2.891,2.843,2.843,0,0,1,.731-1.93.805.805,0,0,1,.11-.129,2.933,2.933,0,0,1,.723-.521,2.844,2.844,0,0,1,1.326-.32H72.514a2.835,2.835,0,0,1,1.3.311,2.878,2.878,0,0,1,1.6,2.589Z" fill="#767dea"/>
    <path d="M72.514,98.322H55.488a2.9,2.9,0,0,1-2.9-2.9h0a2.9,2.9,0,0,1,2.9-2.9H72.514a2.9,2.9,0,0,1,2.9,2.9h0A2.9,2.9,0,0,1,72.514,98.322Z" fill="#4453e2"/>
    <path d="M72.514,104.116H55.488a2.9,2.9,0,0,1-2.9-2.9h0a2.9,2.9,0,0,1,2.9-2.9H72.514a2.9,2.9,0,0,1,2.9,2.9h0A2.9,2.9,0,0,1,72.514,104.116Z" fill="#767dea"/>
  </g>
  <path d="M108.75,62.255a1.749,1.749,0,0,1-1.75,1.75H99.733a1.75,1.75,0,0,1,0-3.5H107A1.749,1.749,0,0,1,108.75,62.255Zm-80.482-1.7H21a1.75,1.75,0,1,0,0,3.5h7.268a1.75,1.75,0,1,0,0-3.5ZM93.15,30.62l-5.138,5.139a1.749,1.749,0,1,0,2.474,2.474L95.625,33.1A1.75,1.75,0,0,0,93.15,30.62ZM63.975,28.3a1.75,1.75,0,0,0,1.75-1.75V19.281a1.75,1.75,0,1,0-3.5,0v7.268A1.749,1.749,0,0,0,63.975,28.3ZM39.953,38.271a1.749,1.749,0,0,0,0-2.475l-5.14-5.14a1.75,1.75,0,0,0-2.474,2.475l5.14,5.14a1.75,1.75,0,0,0,2.474,0ZM89.6,61.833A25.617,25.617,0,0,1,80.839,81.1a15.154,15.154,0,0,0-4.258,6.312,4.634,4.634,0,0,1,.583,2.224,4.583,4.583,0,0,1-1.046,2.892,4.546,4.546,0,0,1,0,5.8,4.6,4.6,0,0,1,1.043,2.9,4.653,4.653,0,0,1-4.647,4.647H70.563a6.361,6.361,0,0,1-6.1,4.6h-.92a6.361,6.361,0,0,1-6.1-4.6H55.488a4.653,4.653,0,0,1-4.647-4.647,4.6,4.6,0,0,1,1.043-2.9,4.545,4.545,0,0,1,0-5.8,4.6,4.6,0,0,1-1.038-2.889,4.646,4.646,0,0,1,.546-2.17,16.432,16.432,0,0,0-4.465-6.572c-.455-.406-.9-.836-1.331-1.278a25.748,25.748,0,0,1-2.224-2.628,25.445,25.445,0,0,1-4.82-12.366,1.75,1.75,0,1,1,3.48-.377,21.866,21.866,0,0,0,2.324,7.719,22.213,22.213,0,0,0,1.832,2.948,22.667,22.667,0,0,0,1.921,2.27c.37.381.755.75,1.151,1.1a19.981,19.981,0,0,1,4.98,6.874,4.651,4.651,0,0,1,1.246-.174h3.3V72.766H56.237a6.054,6.054,0,0,1-6.047-6.048v-.457a6.048,6.048,0,1,1,12.1,0v3.005h3.443V66.261a6.047,6.047,0,1,1,12.094,0v.457a6.054,6.054,0,0,1-6.047,6.048H69.228V84.984h3.287a4.591,4.591,0,0,1,1.2.164,18.567,18.567,0,0,1,4.818-6.683A22.114,22.114,0,0,0,86.1,61.833,22.062,22.062,0,0,0,46.709,48.142a1.75,1.75,0,0,1-2.74-2.178A25.57,25.57,0,0,1,89.6,61.833ZM69.228,69.266h2.547a2.55,2.55,0,0,0,2.547-2.548v-.457a2.547,2.547,0,1,0-5.094,0ZM62.285,84.984h3.443V72.766H62.285Zm-3.5-15.718V66.261a2.548,2.548,0,1,0-5.095,0v.457a2.551,2.551,0,0,0,2.547,2.548Zm7.927,36.6H61.29a2.849,2.849,0,0,0,2.251,1.1h.92A2.849,2.849,0,0,0,66.712,105.866Zm6.949-4.647a1.149,1.149,0,0,0-1.147-1.147H55.488a1.147,1.147,0,1,0,0,2.294H72.514A1.148,1.148,0,0,0,73.661,101.219Zm0-5.794a1.149,1.149,0,0,0-1.147-1.147H55.488a1.147,1.147,0,1,0,0,2.294H72.514A1.148,1.148,0,0,0,73.661,95.425Zm0-5.79a1.135,1.135,0,0,0-.3-.777,1.165,1.165,0,0,0-.331-.247,1.108,1.108,0,0,0-.516-.127H55.489a1.088,1.088,0,0,0-.516.122,1.268,1.268,0,0,0-.271.184c-.024.031-.05.062-.077.091a1.1,1.1,0,0,0-.276.754,1.141,1.141,0,0,0,1.14,1.14H72.515a1.174,1.174,0,0,0,.821-.348A1.126,1.126,0,0,0,73.664,89.635Zm-34.1-35.389c-.091.293-.177.587-.259.884a1.75,1.75,0,0,0,1.222,2.152,1.79,1.79,0,0,0,.466.063,1.752,1.752,0,0,0,1.687-1.285c.07-.256.144-.511.224-.765a1.75,1.75,0,0,0-3.34-1.049Z" fill="#13134c"/>
</svg>
